HIERARCHY
ROOT Hips
{
	OFFSET 0.00000 0.00000 0.00000
	CHANNELS 6 Xposition Yposition Zposition Zrotation Yrotation Xrotation 
	JOINT LHipJoint
	{
		OFFSET 0 0 0
		CHANNELS 3 Zrotation Yrotation Xrotation
		JOINT LeftUpLeg
		{
			OFFSET 1.48831 -1.59570 0.95625
			CHANNELS 3 Zrotation Yrotation Xrotation
			JOINT LeftLeg
			{
				OFFSET 2.20856 -6.06797 0.00000
				CHANNELS 3 Zrotation Yrotation Xrotation
				JOINT LeftFoot
				{
					OFFSET 2.62924 -7.22379 0.00000
					CHANNELS 3 Zrotation Yrotation Xrotation
					JOINT LeftToeBase
					{
						OFFSET 0.16802 -0.46163 2.41673
						CHANNELS 3 Zrotation Yrotation Xrotation
						End Site
						{
							OFFSET 0.00000 -0.00000 1.23760
						}
					}
				}
			}
		}
	}
	JOINT RHipJoint
	{
		OFFSET 0 0 0
		CHANNELS 3 Zrotation Yrotation Xrotation
		JOINT RightUpLeg
		{
			OFFSET -1.56796 -1.59570 0.95625
			CHANNELS 3 Zrotation Yrotation Xrotation
			JOINT RightLeg
			{
				OFFSET -2.29239 -6.29829 0.00000
				CHANNELS 3 Zrotation Yrotation Xrotation
				JOINT RightFoot
				{
					OFFSET -2.66963 -7.33475 0.00000
					CHANNELS 3 Zrotation Yrotation Xrotation
					JOINT RightToeBase
					{
						OFFSET -0.18185 -0.49964 2.34359
						CHANNELS 3 Zrotation Yrotation Xrotation
						End Site
						{
							OFFSET -0.00000 -0.00000 1.20477
						}
					}
				}
			}
		}
	}
	JOINT LowerBack
	{
		OFFSET 0 0 0
		CHANNELS 3 Zrotation Yrotation Xrotation
		JOINT Spine
		{
			OFFSET 0.03505 2.15832 -0.34324
			CHANNELS 3 Zrotation Yrotation Xrotation
			JOINT Spine1
			{
				OFFSET -0.01089 2.17963 0.04689
				CHANNELS 3 Zrotation Yrotation Xrotation
				JOINT Neck
				{
					OFFSET 0 0 0
					CHANNELS 3 Zrotation Yrotation Xrotation
					JOINT Neck1
					{
						OFFSET 0.04686 1.69404 0.22159
						CHANNELS 3 Zrotation Yrotation Xrotation
						JOINT Head
						{
							OFFSET 0.00265 1.69305 -0.01513
							CHANNELS 3 Zrotation Yrotation Xrotation
							End Site
							{
								OFFSET -0.00415 1.80215 -0.03034
							}
						}
					}
				}
				JOINT LeftShoulder
				{
					OFFSET 0 0 0
					CHANNELS 3 Zrotation Yrotation Xrotation
					JOINT LeftArm
					{
						OFFSET 3.67184 1.11724 -0.19002
						CHANNELS 3 Zrotation Yrotation Xrotation
						JOINT LeftForeArm
						{
							OFFSET 5.17714 -0.00000 -0.00000
							CHANNELS 3 Zrotation Yrotation Xrotation
							JOINT LeftHand
							{
								OFFSET 3.43679 -0.00000 -0.00000
								CHANNELS 3 Zrotation Yrotation Xrotation
								JOINT LeftFingerBase
								{
									OFFSET 0 0 0
									CHANNELS 3 Zrotation Yrotation Xrotation
									JOINT LeftHandIndex1
									{
										OFFSET 0.57312 -0.00000 -0.00000
										CHANNELS 3 Zrotation Yrotation Xrotation
										End Site
										{
											OFFSET 0.46206 -0.00000 -0.00000
										}
									}
								}
								JOINT LThumb
								{
									OFFSET 0 0 0
									CHANNELS 3 Zrotation Yrotation Xrotation
									End Site
									{
										OFFSET 0.46912 -0.00000 0.46912
									}
								}
							}
						}
					}
				}
				JOINT RightShoulder
				{
					OFFSET 0 0 0
					CHANNELS 3 Zrotation Yrotation Xrotation
					JOINT RightArm
					{
						OFFSET -3.59596 0.95831 -0.26050
						CHANNELS 3 Zrotation Yrotation Xrotation
						JOINT RightForeArm
						{
							OFFSET -5.23908 -0.00000 -0.00000
							CHANNELS 3 Zrotation Yrotation Xrotation
							JOINT RightHand
							{
								OFFSET -3.46485 -0.00000 -0.00000
								CHANNELS 3 Zrotation Yrotation Xrotation
								JOINT RightFingerBase
								{
									OFFSET 0 0 0
									CHANNELS 3 Zrotation Yrotation Xrotation
									JOINT RightHandIndex1
									{
										OFFSET -0.60875 -0.00000 -0.00000
										CHANNELS 3 Zrotation Yrotation Xrotation
										End Site
										{
											OFFSET -0.49079 -0.00000 -0.00000
										}
									}
								}
								JOINT RThumb
								{
									OFFSET 0 0 0
									CHANNELS 3 Zrotation Yrotation Xrotation
									End Site
									{
										OFFSET -0.49829 -0.00000 0.49829
									}
								}
							}
						}
					}
				}
			}
		}
	}
}
MOTION
Frames: 10
Frame Time: .0083333
49.6739 15.9835 17.3045 0 0 0 0 0 0 -21 0 0 0 0 0 0 0 0 0 0 0 0 0 0 21 0 0 0 0 0 0 0 0 0 0 0 0 0 0 0 0 0 0 0 0 0 0 -16 0 0 21 0 0 11 0 0 0 -8 0 0 0 0 0 0 0 0 0 0 0 0 0 0 0 0 0 0 0 0 8 0 0 0 0 0 0 0 0 0 0 0 0 0 0 0 0 0
49.6739 15.9835 17.3045 -170.4720 -58.3153 173.7630 0.0000 0.0000 0.0000 -16.9486 5.0919 -11.9188 2.4092 9.6709 27.9173 1.4308 -1.3707 -22.2168 0.0075 0.5598 1.5382 0.0000 0.0000 0.0000 26.8345 5.3706 -13.9475 -3.5592 -11.5495 34.1563 -1.7141 -5.3344 -27.1334 -0.0083 -0.5890 1.6185 5.1713 -0.6824 -4.6899 0.9278 -1.2664 0.7347 -2.0358 -0.5502 3.3033 0.5952 -3.4151 -1.6712 4.2289 -4.6258 -0.4614 1.1606 -2.3222 0.2254 0.0000 0.0000 0.0000 -88.1682 0.8846 21.7989 12.6613 -20.7889 -2.3317 -0.0000 0.0000 -19.7494 18.8429 9.0646 3.0776 -7.1250 0.0000 -0.0000 -7.0411 39.4548 0.9678 0.0000 0.0000 0.0000 90.2815 -4.2835 20.5845 -15.7276 25.1499 -3.5294 0.0000 -0.0000 -0.6208 -20.8909 -5.6244 2.1423 7.1250 -0.0000 -0.0000 4.8740 -35.9612 1.0861
49.6759 15.9832 17.3040 -171.7450 -58.3981 174.6870 0.0000 0.0000 0.0000 -17.7155 5.3226 -11.4923 2.3086 9.4812 27.3125 1.3862 -1.0780 -21.9411 0.0016 0.2587 0.7107 0.0000 0.0000 0.0000 26.0997 5.4001 -13.9951 -3.6459 -11.6736 34.5870 -1.7574 -5.1599 -27.3389 -0.0100 -0.6453 1.7732 4.4415 -0.7528 -4.4876 0.7822 -1.2959 0.7530 -1.7765 -0.5764 3.2166 0.5947 -3.4066 -1.5049 4.1239 -4.6024 -0.6410 1.1333 -2.3150 0.1398 0.0000 -0.0000 0.0000 -88.2423 0.9386 21.6718 12.6344 -20.7491 -2.3221 -0.0000 0.0000 -19.7264 18.8097 9.0881 3.0796 -7.1250 0.0000 -0.0000 -7.0733 39.4767 0.9684 0.0000 -0.0000 0.0000 90.1959 -4.2982 20.6859 -15.7067 25.1214 -3.5205 0.0000 -0.0000 -0.5901 -20.8742 -5.5325 2.1056 7.1250 -0.0000 -0.0000 4.8790 -35.8626 1.0990
49.6790 15.9834 17.3040 -173.0140 -58.4887 175.6110 0.0000 0.0000 0.0000 -18.4701 5.4522 -11.0179 2.2089 9.2882 26.7011 1.3505 -0.8934 -21.7043 0.0012 0.2201 0.6048 0.0000 0.0000 0.0000 25.3648 5.3868 -14.0578 -3.7305 -11.7929 35.0033 -1.7982 -4.9930 -27.5305 -0.0112 -0.6845 1.8810 3.7643 -0.7466 -4.2780 0.5567 -1.2271 0.7894 -1.6218 -0.5510 3.1479 0.6455 -3.4269 -1.4789 4.2059 -4.6285 -0.7502 1.1519 -2.3313 0.1035 -0.0000 -0.0000 0.0000 -88.1607 0.9405 21.7960 12.6147 -20.7201 -2.3152 -0.0000 0.0000 -19.7461 18.8430 9.1053 3.0913 -7.1250 0.0000 -0.0000 -7.0473 39.4973 0.9612 -0.0000 -0.0000 0.0000 90.2880 -4.3202 20.6332 -15.7376 25.1636 -3.5336 0.0000 -0.0000 -0.6273 -20.9017 -5.6521 2.1540 7.1250 -0.0000 -0.0000 4.8677 -35.9914 1.0811
49.6827 15.9824 17.3028 -174.2070 -58.5733 176.4540 0.0000 0.0000 0.0000 -19.1627 5.5677 -10.5158 2.1098 9.0912 26.0810 1.3147 -0.7757 -21.4441 0.0014 0.2436 0.6693 0.0000 0.0000 0.0000 24.6890 5.4185 -14.0857 -3.8148 -11.9098 35.4137 -1.8368 -4.8986 -27.7439 -0.0118 -0.7011 1.9268 3.0578 -0.8049 -4.0505 0.4156 -1.2504 0.8179 -1.3692 -0.5738 3.0583 0.6174 -3.4123 -1.4856 4.1819 -4.6094 -0.7045 1.1486 -2.3204 0.1183 0.0000 0.0000 0.0000 -88.2065 0.9610 21.6861 12.5813 -20.6707 -2.3034 -0.0000 0.0000 -19.7112 18.7784 9.1649 3.0998 -7.1250 0.0000 -0.0000 -7.1123 39.5544 0.9602 0.0000 0.0000 0.0000 90.2357 -4.3380 20.7069 -15.7373 25.1632 -3.5335 0.0000 -0.0000 -0.6221 -20.9009 -5.5337 2.1090 7.1250 -0.0000 -0.0000 4.8568 -35.8652 1.0937
49.6862 15.9814 17.3022 -175.4310 -58.6509 177.3280 0.0000 0.0000 0.0000 -19.8743 5.7207 -10.0320 2.0117 8.8903 25.4529 1.2757 -0.6106 -21.1685 0.0008 0.1871 0.5142 0.0000 0.0000 0.0000 23.9917 5.4236 -14.1212 -3.8984 -12.0240 35.8169 -1.8755 -4.7693 -27.9387 -0.0127 -0.7265 1.9967 2.3644 -0.8400 -3.8235 0.2473 -1.2472 0.8478 -1.1499 -0.5829 2.9715 0.6237 -3.4122 -1.4678 4.1752 -4.6081 -0.7271 1.1460 -2.3204 0.1081 0.0000 -0.0000 0.0000 -88.2140 0.9767 21.6526 12.5499 -20.6242 -2.2923 -0.0000 0.0000 -19.6811 18.7581 9.1703 3.0980 -7.1250 0.0000 -0.0000 -7.1306 39.5584 0.9620 0.0000 -0.0000 0.0000 90.2282 -4.3538 20.7323 -15.7427 25.1705 -3.5358 0.0000 -0.0000 -0.6163 -20.8952 -5.5076 2.0984 7.1250 -0.0000 -0.0000 4.8591 -35.8371 1.0975
49.6900 15.9802 17.3017 -176.6470 -58.7272 178.1960 0.0000 0.0000 0.0000 -20.5750 5.8736 -9.5446 1.9150 8.6867 24.8200 1.2365 -0.4587 -20.8843 0.0005 0.1438 0.3951 0.0000 0.0000 0.0000 23.3015 5.4228 -14.1522 -3.9811 -12.1353 36.2122 -1.9133 -4.6477 -28.1298 -0.0134 -0.7477 2.0548 1.6750 -0.8733 -3.5911 0.0800 -1.2466 0.8790 -0.9316 -0.5932 2.8830 0.6314 -3.4138 -1.4661 4.1687 -4.6103 -0.7281 1.1428 -2.3215 0.1072 0.0000 0.0000 0.0000 -88.2190 0.9868 21.6237 12.5173 -20.5759 -2.2808 -0.0000 0.0000 -19.6506 18.7396 9.1597 3.0912 -7.1250 0.0000 -0.0000 -7.1450 39.5458 0.9661 0.0000 0.0000 0.0000 90.2234 -4.3665 20.7509 -15.7467 25.1761 -3.5375 0.0000 -0.0000 -0.6080 -20.8844 -5.4722 2.0838 7.1250 -0.0000 -0.0000 4.8647 -35.7989 1.1033
49.6939 15.9785 17.3011 -177.8580 -58.7957 179.0590 0.0000 0.0000 0.0000 -21.2667 6.0305 -9.0533 1.8193 8.4792 24.1792 1.1970 -0.3095 -20.5918 0.0002 0.1018 0.2796 0.0000 0.0000 0.0000 22.6170 5.4187 -14.1803 -4.0635 -12.2444 36.6022 -1.9502 -4.5274 -28.3146 -0.0141 -0.7664 2.1061 0.9917 -0.9060 -3.3578 -0.0848 -1.2504 0.9104 -0.7143 -0.6057 2.7943 0.6294 -3.4121 -1.4706 4.1695 -4.6084 -0.7180 1.1432 -2.3203 0.1110 -0.0000 -0.0000 0.0000 -88.2265 0.9951 21.5863 12.4852 -20.5284 -2.2696 -0.0000 0.0000 -19.6212 18.7154 9.1468 3.0826 -7.1250 0.0000 -0.0000 -7.1638 39.5304 0.9714 -0.0000 -0.0000 0.0000 90.2167 -4.3756 20.7673 -15.7455 25.1744 -3.5370 0.0000 -0.0000 -0.5945 -20.8669 -5.4599 2.0773 7.1250 -0.0000 -0.0000 4.8782 -35.7849 1.1081
49.6978 15.9766 17.3007 -179.0660 -58.8561 179.9200 0.0000 0.0000 0.0000 -21.9524 6.1914 -8.5584 1.7248 8.2676 23.5298 1.1575 -0.1641 -20.2941 0.0001 0.0617 0.1695 0.0000 0.0000 0.0000 21.9344 5.4084 -14.2068 -4.1452 -12.3512 36.9860 -1.9864 -4.4027 -28.4915 -0.0148 -0.7850 2.1574 0.3179 -0.9327 -3.1256 -0.2527 -1.2513 0.9436 -0.5054 -0.6166 2.7083 0.6272 -3.4117 -1.4812 4.1795 -4.6086 -0.7062 1.1463 -2.3202 0.1167 -0.0000 0.0000 0.0000 -88.2276 0.9988 21.5618 12.4546 -20.4829 -2.2588 -0.0000 0.0000 -19.5964 18.6986 9.1267 3.0730 -7.1250 0.0000 -0.0000 -7.1751 39.5082 0.9769 -0.0000 0.0000 0.0000 90.2170 -4.3787 20.7732 -15.7398 25.1666 -3.5346 0.0000 -0.0000 -0.5837 -20.8538 -5.4372 2.0672 7.1250 -0.0000 -0.0000 4.8869 -35.7602 1.1130
49.7019 15.9745 17.3003 -180.2650 -58.9105 180.7800 0.0000 0.0000 0.0000 -22.6285 6.3547 -8.0591 1.6300 8.0487 22.8620 1.1176 -0.0255 -19.9849 0.0000 0.0301 0.0828 0.0000 0.0000 0.0000 21.2581 5.3956 -14.2392 -4.2274 -12.4570 37.3686 -2.0217 -4.2825 -28.6643 -0.0153 -0.7989 2.1955 -0.3497 -0.9583 -2.8974 -0.4180 -1.2559 0.9763 -0.2974 -0.6293 2.6242 0.6155 -3.4086 -1.4959 4.2001 -4.6055 -0.6915 1.1543 -2.3182 0.1244 -0.0000 -0.0000 0.0000 -88.2308 1.0028 21.5322 12.4305 -20.4471 -2.2504 -0.0000 0.0000 -19.5786 18.6805 9.1416 3.0747 -7.1250 0.0000 -0.0000 -7.1931 39.5223 0.9769 -0.0000 -0.0000 0.0000 90.2145 -4.3779 20.7837 -15.7299 25.1530 -3.5304 0.0000 -0.0000 -0.5792 -20.8415 -5.4579 2.0737 7.1250 -0.0000 -0.0000 4.8991 -35.7815 1.1132
